<?xml version="1.0" encoding="utf-8"?>
<!-- Generator: Adobe Illustrator 19.2.1, SVG Export Plug-In . SVG Version: 6.00 Build 0)  -->
<svg version="1.1" id="Layer_1" xmlns="http://www.w3.org/2000/svg" xmlns:xlink="http://www.w3.org/1999/xlink" x="0px" y="0px"
	 viewBox="0 0 1978.9 1978.9" style="enable-background:new 0 0 1978.9 1978.9;" xml:space="preserve">
<style type="text/css">
	.st0{fill:#4F77BB;}
</style>
<g>
	<path class="st0" d="M630.4,6.7c68.1,0,135.7,0,203.9,0c0,377.8,0,755.5,0,1133.7c-67.9,0-135.6,0-203.9,0
		C630.4,762.6,630.4,385.1,630.4,6.7z"/>
	<path class="st0" d="M1144.9,1140.8c0-3.8,0-6.5,0-9.3c0-317.6,0-635.2,0-952.8c0-10,0-10.1,10.2-10.1c61.5,0,122.9,0,184.4,0
		c9.8,0,9.9,0,9.9,9.9c0,317.6,0,635.2,0,952.8c0,9.4,0,9.4-9.4,9.4c-62.1,0-124.3,0-186.4,0
		C1151,1140.8,1148.5,1140.8,1144.9,1140.8z"/>
	<path class="st0" d="M1091.6,331.5c0,269.8,0,539,0,809.3c-2.9,0-5.6,0-8.2,0c-61.9,0-123.8,0-185.7,0c-10.1,0-10.1,0-10.1-10.1
		c0-256.2,0-512.3,0-768.5c0-8.5,0.1-17,0-25.5c0-3.8,0.8-5.9,5.4-5.9c65.1,0.1,130.3,0.1,195.4,0.1
		C1089.1,331,1090,331.2,1091.6,331.5z"/>
	<path class="st0" d="M1402.5,655.8c68,0,135.6,0,203.8,0c0,161.4,0,322.7,0,484.5c-67.8,0-135.6,0-203.8,0
		C1402.5,979,1402.5,817.8,1402.5,655.8z"/>
	<path class="st0" d="M170.3,1753.7c6,74.1,1.6,145.9,3.4,218.5c-17.9,0-34.6,0.1-51.3-0.2c-1.4,0-3.3-2.4-3.9-4.1
		c-0.7-1.8-0.2-4.1-0.2-6.2c0-173.6,0-347.1,0-520.7c0-2.1-0.5-4.4,0.2-6.1c0.8-1.8,2.8-4.4,4.4-4.4c13.3-0.3,26.6-0.2,40.4-0.2
		c2.5,15.4,4.8,30.3,7.3,45.1c0.3,2,1.6,3.8,2.4,5.7c1.7-1.4,3.7-2.5,4.9-4.2c20-26.6,46-44.2,78.9-50.1
		c46.5-8.2,90.9-3.7,129.3,26.8c25.5,20.3,40.6,47.8,49.6,78.6c9.9,34.1,12.4,68.9,10.3,104.3c-1.6,27.9-5.7,55.2-16.3,81.2
		c-20.6,50.3-56.2,83-111.1,90.7c-44.3,6.3-86.2-0.5-122.1-29.7c-7.1-5.8-12.8-13.2-19.2-19.7
		C175.6,1757.7,173.7,1756.4,170.3,1753.7z M172.9,1624c1.9,14.5,4.2,40.2,9,65.3c4.4,23,15.3,43.2,35.2,57.3
		c15.4,11,33,15.6,51.5,17.4c31.1,3.1,59.5-2.4,82.1-26.2c16.9-17.7,26.5-39,31.9-62.4c7-30.3,7.7-60.9,4.4-91.7
		c-2.4-23-7.7-45.2-19.5-65.4c-13.7-23.6-33.1-40.3-60.5-44.7c-14.7-2.3-30.2-2.5-45.1-1.1c-38.3,3.5-64.8,23.1-77.6,60.2
		C175.3,1558.7,174.3,1585.8,172.9,1624z"/>
	<path class="st0" d="M372.9,1140.8c0-3.6,0-6.1,0-8.6c0-101.7,0-203.4,0-305.1c0-9.3,0-9.3,9.5-9.3c61.7,0,123.3,0,185,0
		c9.8,0,9.9,0,9.9,9.9c0,101.3,0,202.5,0,303.8c0,9.3,0,9.3-9.4,9.3c-62.1,0-124.3,0-186.4,0
		C378.9,1140.8,376.4,1140.8,372.9,1140.8z"/>
	<path class="st0" d="M1859.8,1430.9c-6.7,17.7-13.1,34.8-19.5,51.9c-47.4,125.9-94.8,251.8-142.4,377.7
		c-10.6,28-23.8,54.8-44.9,76.8c-19,19.8-42.4,30.5-69.7,33.9c-20.8,2.6-41.2,0.1-61.7-3.1c-4.7-0.7-6.9-2.7-6.7-8.1
		c0.5-12.1,0.2-24.3,0.2-36.4c14,0.9,27.4,2.2,40.9,2.5c31.5,0.7,55.9-13.2,71.3-40.1c9.8-17.2,15.5-36.7,24.6-54.4
		c9-17.2,6.9-32.2-0.3-49.8c-46.7-114.6-92.3-229.7-138.3-344.6c-0.7-1.9-1.4-3.8-2.3-6.3c2.5-0.2,4.5-0.5,6.5-0.5
		c15.2,0,30.4,0.3,45.6-0.2c5.5-0.2,7.9,1.5,9.9,6.7c16.4,43.5,33.6,86.8,49.8,130.4c18.3,49.2,36,98.6,53.7,148
		c3.3,9.2,5.2,19,7.8,28.5c0.5,1.9,1.3,3.7,2.6,7c1.7-2.6,2.9-3.9,3.4-5.4c25.8-74.7,51.5-149.4,77.4-224.1
		c9.9-28.6,20.5-56.9,30.5-85.4c1.4-4.1,3.4-5.7,7.8-5.6c15.9,0.3,31.8,0.1,47.6,0.1C1855.5,1430.4,1857.2,1430.6,1859.8,1430.9z"/>
	<path class="st0" d="M702.4,1619.9c0.2-41.4,5.1-78,22.6-111.8c24.5-47.2,63.5-74.2,116-82c34-5.1,67.5-3.7,99.6,8.9
		c49.6,19.5,79.2,57.2,94.3,107.2c10,33.1,11.5,67.2,8.7,101.6c-2.2,27-7.6,53.1-19.5,77.5c-22.2,46-58.4,74.8-108.5,85.1
		c-37.8,7.7-75.4,6.5-111.5-8.6c-49.7-20.8-78.3-59.7-92.9-110.3C704.7,1664.1,702.5,1640.2,702.4,1619.9z M760.1,1621.3
		c-0.5,18.5,1.9,41.5,8.5,63.9c9.1,31,25.6,56.4,56.3,70c21.6,9.6,44.2,11,67.4,8.1c34.4-4.4,60-21.6,76-52.4
		c11.9-22.8,16.2-47.4,18.1-72.8c2.2-29.4,0.5-58.3-7.3-86.7c-8.8-32-25.8-57.9-57.5-71.5c-21.8-9.3-44.8-10.8-68.2-7.8
		c-35.7,4.5-61.4,22.7-76.9,55.1C763.2,1555.5,760.1,1585.8,760.1,1621.3z"/>
	<path class="st0" d="M1149.9,1473.5c-18.5,0-35.5,0-53.3,0c0-8.4-0.3-16.1,0.2-23.9c0.1-1.9,3.1-4.2,5.2-5.2
		c13.8-6.3,27.6-12.4,41.6-18.3c4.4-1.9,6.8-4.6,8.1-9.2c6.4-22.2,13.3-44.3,19.5-66.6c1.6-5.9,4.4-7.5,10.1-7.2
		c7.5,0.5,15.1,0.1,23.7,0.1c0,3.3,0,5.9,0,8.6c0,23.7,0.2,47.4-0.1,71.1c-0.1,5.7,1.6,7.5,7.4,7.4c31.1-0.3,62.1-0.1,93.2-0.1
		c2.5,0,5,0,8,0c0,14.5,0,28.4,0,43.3c-2.5,0-4.9,0-7.3,0c-31.3,0-62.6,0.1-93.9-0.1c-5.8,0-7.3,1.8-7.3,7.4
		c0.2,70.4-0.2,140.9,0.4,211.3c0.1,12.8,2.5,26.3,7,38.2c8.3,22.2,26.2,33.7,49.7,33.7c16.1,0,32.3-3.1,48.4-4.9
		c1.8-0.2,3.6-0.4,6.3-0.7c0,13.3,0.2,26.4-0.2,39.4c0,1.6-3,3.9-5,4.4c-9.5,2.4-19.1,5-28.8,6.4c-21.8,3.1-43.5,2.7-64.9-3.1
		c-37.1-10.1-57.5-35.4-64.4-72.1c-2.4-13-3.4-26.4-3.5-39.7c-0.3-69.7-0.2-139.5-0.2-209.2
		C1149.9,1481.3,1149.9,1477.9,1149.9,1473.5z"/>
	<path class="st0" d="M319.3,1140.5c-68.1,0-135.7,0-203.9,0c0-53.3,0-106.5,0-160.1c67.9,0,135.6,0,203.9,0
		C319.3,1033.7,319.3,1086.7,319.3,1140.5z"/>
	<path class="st0" d="M1863.6,980.4c0,53.7,0,106.5,0,160c-2.5,0.1-4.8,0.4-7,0.4c-63.1,0-126.1-0.1-189.2,0.2c-6.7,0-8-2.3-8-8.3
		c0.2-48.3,0.1-96.6,0-145c0-5.1,0.6-7.9,7-7.9c63.7,0.2,127.5,0.1,191.2,0.2C1859.5,980,1861.2,980.3,1863.6,980.4z"/>
	<path class="st0" d="M601,1803.7c-17.2,0-34,0.1-50.7-0.2c-1.3,0-3.2-2.1-3.7-3.6c-0.7-2.1-0.3-4.6-0.3-6.9
		c0-169.4,0-338.7,0-508.1c0-2.3-0.4-4.7,0.3-6.9c0.5-1.5,2.4-3.7,3.6-3.7c16.8-0.2,33.5-0.2,50.8-0.2
		C601,1450.8,601,1626.7,601,1803.7z"/>
	<path class="st0" d="M1447.6,1803.7c-17.2,0-33.9,0.1-50.7-0.2c-1.3,0-3.3-2.1-3.7-3.6c-0.7-2.1-0.3-4.6-0.3-6.9
		c0-169.4,0-338.7,0-508.1c0-2.1-0.5-4.4,0.2-6.1c0.8-1.8,2.8-4.4,4.3-4.4c16.5-0.3,33.1-0.2,50.1-0.2
		C1447.6,1450.8,1447.6,1626.7,1447.6,1803.7z"/>
</g>
</svg>
