<?xml version="1.0" encoding="utf-8"?>
<!-- Generator: Adobe Illustrator 19.2.1, SVG Export Plug-In . SVG Version: 6.00 Build 0)  -->
<svg version="1.1" id="Layer_1" xmlns="http://www.w3.org/2000/svg" xmlns:xlink="http://www.w3.org/1999/xlink" x="0px" y="0px"
	 viewBox="0 0 1748.2 1134.3" style="enable-background:new 0 0 1748.2 1134.3;" xml:space="preserve">
<style type="text/css">
	.st0{fill:#4F77BB;}
</style>
<g>
	<path class="st0" d="M515,0c68.1,0,135.7,0,203.9,0c0,377.8,0,755.5,0,1133.7c-67.9,0-135.6,0-203.9,0C515,755.9,515,378.4,515,0z"
		/>
	<path class="st0" d="M1029.5,1134.1c0-3.8,0-6.5,0-9.3c0-317.6,0-635.2,0-952.8c0-10,0-10.1,10.2-10.1c61.5,0,122.9,0,184.4,0
		c9.8,0,9.9,0,9.9,9.9c0,317.6,0,635.2,0,952.8c0,9.4,0,9.4-9.4,9.4c-62.1,0-124.3,0-186.4,0
		C1035.6,1134.1,1033.1,1134.1,1029.5,1134.1z"/>
	<path class="st0" d="M976.2,324.8c0,269.8,0,539,0,809.3c-2.9,0-5.6,0-8.2,0c-61.9,0-123.8,0-185.7,0c-10.1,0-10.1,0-10.1-10.1
		c0-256.2,0-512.3,0-768.5c0-8.5,0.1-17,0-25.5c0-3.8,0.8-5.9,5.4-5.9c65.1,0.1,130.3,0.1,195.4,0.1
		C973.7,324.3,974.6,324.5,976.2,324.8z"/>
	<path class="st0" d="M1287.1,649.1c68,0,135.6,0,203.8,0c0,161.4,0,322.7,0,484.5c-67.8,0-135.6,0-203.8,0
		C1287.1,972.3,1287.1,811.1,1287.1,649.1z"/>
	<path class="st0" d="M257.5,1134.1c0-3.6,0-6.1,0-8.6c0-101.7,0-203.4,0-305.1c0-9.3,0-9.3,9.5-9.3c61.7,0,123.3,0,185,0
		c9.8,0,9.9,0,9.9,9.9c0,101.3,0,202.5,0,303.8c0,9.3,0,9.3-9.4,9.3c-62.1,0-124.3,0-186.4,0C263.5,1134.1,261,1134.1,257.5,1134.1z
		"/>
	<path class="st0" d="M203.9,1133.8c-68.1,0-135.7,0-203.9,0c0-53.3,0-106.5,0-160.1c67.9,0,135.6,0,203.9,0
		C203.9,1027,203.9,1080,203.9,1133.8z"/>
	<path class="st0" d="M1748.2,973.7c0,53.7,0,106.5,0,160c-2.5,0.1-4.8,0.4-7,0.4c-63.1,0-126.1-0.1-189.2,0.2c-6.7,0-8-2.3-8-8.3
		c0.2-48.3,0.1-96.6,0-145c0-5.1,0.6-7.9,7-7.9c63.7,0.2,127.5,0.1,191.2,0.2C1744.1,973.3,1745.8,973.6,1748.2,973.7z"/>
</g>
</svg>
